<svg xmlns="http://www.w3.org/2000/svg" width="160" height="160" viewBox="0 0 160 160"><polygon points="41.8,86.1 42.6,88.5 45.0,89.3 42.6,90.1 41.8,92.5 41.0,90.1 38.6,89.3 41.0,88.5" fill="#ff79c6" opacity="0.5"/><rect x="36.7" y="88.8" width="10.2" height="1.1" fill="#ff79c6" opacity="0.25"/><rect x="41.3" y="84.2" width="1.1" height="10.2" fill="#ff79c6" opacity="0.25"/><polygon points="86.3,71.9 87.2,74.4 89.7,75.3 87.2,76.2 86.3,78.7 85.4,76.2 82.9,75.3 85.4,74.4" fill="#ffffff" opacity="1"/><rect x="80.9" y="74.8" width="10.8" height="1.1" fill="#ffffff" opacity="0.50"/><rect x="85.8" y="69.9" width="1.1" height="10.8" fill="#ffffff" opacity="0.50"/><polygon points="99.8,34.2 100.6,36.6 103.0,37.4 100.6,38.2 99.8,40.6 99.0,38.2 96.6,37.4 99.0,36.6" fill="#ffe1f4" opacity="0.5"/><rect x="94.7" y="36.9" width="10.2" height="1.1" fill="#ffe1f4" opacity="0.25"/><rect x="99.3" y="32.3" width="1.1" height="10.2" fill="#ffe1f4" opacity="0.25"/><polygon points="118.7,65.0 119.3,66.5 120.8,67.1 119.3,67.6 118.7,69.2 118.2,67.6 116.6,67.1 118.2,66.5" fill="#5fe6ff" opacity="0.5"/><rect x="115.3" y="66.5" width="6.8" height="1.1" fill="#5fe6ff" opacity="0.25"/><rect x="118.2" y="63.7" width="1.1" height="6.8" fill="#5fe6ff" opacity="0.25"/><polygon points="119.5,31.3 120.0,32.9 121.6,33.4 120.0,33.9 119.5,35.5 119.0,33.9 117.4,33.4 119.0,32.9" fill="#ffffff" opacity="0.5"/><rect x="116.1" y="32.9" width="6.8" height="1.1" fill="#ffffff" opacity="0.25"/><rect x="119.0" y="30.0" width="1.1" height="6.8" fill="#ffffff" opacity="0.25"/><polygon points="152.1,70.1 153.7,74.5 158.1,76.1 153.7,77.7 152.1,82.1 150.5,77.7 146.1,76.1 150.5,74.5" fill="#5fe6ff" opacity="1"/><rect x="142.5" y="75.5" width="19.2" height="1.1" fill="#5fe6ff" opacity="0.50"/><rect x="151.5" y="66.5" width="1.1" height="19.2" fill="#5fe6ff" opacity="0.50"/><polygon points="67.8,63.3 68.3,64.9 69.9,65.4 68.3,66.0 67.8,67.5 67.3,66.0 65.7,65.4 67.3,64.9" fill="#ff79c6" opacity="0.5"/><rect x="64.4" y="64.9" width="6.8" height="1.1" fill="#ff79c6" opacity="0.25"/><rect x="67.3" y="62.0" width="1.1" height="6.8" fill="#ff79c6" opacity="0.25"/><polygon points="46.3,142.2 46.8,143.8 48.4,144.3 46.8,144.9 46.3,146.4 45.8,144.9 44.2,144.3 45.8,143.8" fill="#ffffff" opacity="0.5"/><rect x="42.9" y="143.8" width="6.8" height="1.1" fill="#ffffff" opacity="0.25"/><rect x="45.8" y="140.9" width="1.1" height="6.8" fill="#ffffff" opacity="0.25"/><polygon points="125,110.1 125.5,111.7 127.1,112.2 125.5,112.8 125,114.3 124.5,112.8 122.9,112.2 124.5,111.7" fill="#ffe23b" opacity="0.5"/><rect x="121.6" y="111.7" width="6.8" height="1.1" fill="#ffe23b" opacity="0.25"/><rect x="124.5" y="108.8" width="1.1" height="6.8" fill="#ffe23b" opacity="0.25"/><polygon points="36.6,28.4 37.1,29.9 38.7,30.5 37.1,31.1 36.6,32.6 36.1,31.1 34.5,30.5 36.1,29.9" fill="#ffe23b" opacity="0.5"/><rect x="33.2" y="29.9" width="6.8" height="1.1" fill="#ffe23b" opacity="0.25"/><rect x="36.1" y="27.1" width="1.1" height="6.8" fill="#ffe23b" opacity="0.25"/><polygon points="89.6,15.7 91.2,20.1 95.6,21.7 91.2,23.3 89.6,27.7 88.0,23.3 83.6,21.7 88.0,20.1" fill="#ffe23b" opacity="1"/><rect x="80.0" y="21.1" width="19.2" height="1.1" fill="#ffe23b" opacity="0.50"/><rect x="89.0" y="12.1" width="1.1" height="19.2" fill="#ffe23b" opacity="0.50"/><polygon points="93.4,30.4 94.0,31.9 95.5,32.5 94.0,33.0 93.4,34.6 92.9,33.0 91.3,32.5 92.9,31.9" fill="#ffffff" opacity="0.5"/><rect x="90.0" y="31.9" width="6.8" height="1.1" fill="#ffffff" opacity="0.25"/><rect x="92.9" y="29.1" width="1.1" height="6.8" fill="#ffffff" opacity="0.25"/><polygon points="131.2,51.3 131.8,52.9 133.3,53.4 131.8,53.9 131.2,55.5 130.6,53.9 129.1,53.4 130.6,52.9" fill="#ff79c6" opacity="0.5"/><rect x="127.8" y="52.9" width="6.8" height="1.1" fill="#ff79c6" opacity="0.25"/><rect x="130.6" y="50.0" width="1.1" height="6.8" fill="#ff79c6" opacity="0.25"/><polygon points="25.5,46.8 26.1,48.4 27.6,48.9 26.1,49.4 25.5,51.0 24.9,49.4 23.4,48.9 24.9,48.4" fill="#ffffff" opacity="0.5"/><rect x="22.1" y="48.4" width="6.8" height="1.1" fill="#ffffff" opacity="0.25"/><rect x="24.9" y="45.5" width="1.1" height="6.8" fill="#ffffff" opacity="0.25"/><polygon points="148.6,143.5 149.2,145.0 150.7,145.6 149.2,146.2 148.6,147.7 148.0,146.2 146.5,145.6 148.0,145.0" fill="#5fe6ff" opacity="0.5"/><rect x="145.2" y="145.0" width="6.8" height="1.1" fill="#5fe6ff" opacity="0.25"/><rect x="148.0" y="142.2" width="1.1" height="6.8" fill="#5fe6ff" opacity="0.25"/><polygon points="9.2,136.7 10.8,141.1 15.2,142.7 10.8,144.3 9.2,148.7 7.6,144.3 3.2,142.7 7.6,141.1" fill="#ffffff" opacity="1"/><rect x="-0.4" y="142.1" width="19.2" height="1.1" fill="#ffffff" opacity="0.50"/><rect x="8.6" y="133.1" width="1.1" height="19.2" fill="#ffffff" opacity="0.50"/><polygon points="55.9,140.6 56.4,142.1 58.0,142.7 56.4,143.3 55.9,144.8 55.4,143.3 53.8,142.7 55.4,142.1" fill="#ff79c6" opacity="0.5"/><rect x="52.5" y="142.1" width="6.8" height="1.1" fill="#ff79c6" opacity="0.25"/><rect x="55.4" y="139.3" width="1.1" height="6.8" fill="#ff79c6" opacity="0.25"/><polygon points="39.4,133.0 40.2,135.4 42.6,136.2 40.2,137.0 39.4,139.4 38.6,137.0 36.2,136.2 38.6,135.4" fill="#ffe1f4" opacity="0.5"/><rect x="34.3" y="135.6" width="10.2" height="1.1" fill="#ffe1f4" opacity="0.25"/><rect x="38.9" y="131.1" width="1.1" height="10.2" fill="#ffe1f4" opacity="0.25"/><polygon points="101.2,108.9 102.1,111.4 104.6,112.3 102.1,113.2 101.2,115.7 100.3,113.2 97.8,112.3 100.3,111.4" fill="#ffffff" opacity="1"/><rect x="95.8" y="111.8" width="10.8" height="1.1" fill="#ffffff" opacity="0.50"/><rect x="100.7" y="106.9" width="1.1" height="10.8" fill="#ffffff" opacity="0.50"/><polygon points="130.2,92.9 131.0,95.3 133.4,96.1 131.0,96.9 130.2,99.3 129.4,96.9 127.0,96.1 129.4,95.3" fill="#ffe23b" opacity="0.5"/><rect x="125.1" y="95.5" width="10.2" height="1.1" fill="#ffe23b" opacity="0.25"/><rect x="129.6" y="91.0" width="1.1" height="10.2" fill="#ffe23b" opacity="0.25"/><polygon points="88.8,151.3 89.3,152.8 90.9,153.4 89.3,154.0 88.8,155.5 88.3,154.0 86.7,153.4 88.3,152.8" fill="#ffffff" opacity="0.5"/><rect x="85.4" y="152.8" width="6.8" height="1.1" fill="#ffffff" opacity="0.25"/><rect x="88.3" y="150.0" width="1.1" height="6.8" fill="#ffffff" opacity="0.25"/><polygon points="116,136.9 116.9,139.4 119.4,140.3 116.9,141.2 116,143.7 115.1,141.2 112.6,140.3 115.1,139.4" fill="#ff2f9a" opacity="1"/><rect x="110.6" y="139.8" width="10.8" height="1.1" fill="#ff2f9a" opacity="0.50"/><rect x="115.5" y="134.9" width="1.1" height="10.8" fill="#ff2f9a" opacity="0.50"/><polygon points="89.6,100.2 90.5,102.7 93.0,103.6 90.5,104.5 89.6,107.0 88.7,104.5 86.2,103.6 88.7,102.7" fill="#5fe6ff" opacity="1"/><rect x="84.2" y="103.0" width="10.8" height="1.1" fill="#5fe6ff" opacity="0.50"/><rect x="89.0" y="98.2" width="1.1" height="10.8" fill="#5fe6ff" opacity="0.50"/><polygon points="53.7,138.2 54.3,139.8 55.8,140.3 54.3,140.9 53.7,142.4 53.2,140.9 51.6,140.3 53.2,139.8" fill="#ff79c6" opacity="0.5"/><rect x="50.3" y="139.8" width="6.8" height="1.1" fill="#ff79c6" opacity="0.25"/><rect x="53.2" y="136.9" width="1.1" height="6.8" fill="#ff79c6" opacity="0.25"/><polygon points="24.6,98.7 25.4,101.1 27.8,101.9 25.4,102.7 24.6,105.1 23.8,102.7 21.4,101.9 23.8,101.1" fill="#ffffff" opacity="0.5"/><rect x="19.5" y="101.4" width="10.2" height="1.1" fill="#ffffff" opacity="0.25"/><rect x="24.1" y="96.8" width="1.1" height="10.2" fill="#ffffff" opacity="0.25"/><polygon points="8.8,137.3 9.4,138.8 10.9,139.4 9.4,140.0 8.8,141.5 8.3,140.0 6.7,139.4 8.3,138.8" fill="#5fe6ff" opacity="0.5"/><rect x="5.4" y="138.8" width="6.8" height="1.1" fill="#5fe6ff" opacity="0.25"/><rect x="8.3" y="136.0" width="1.1" height="6.8" fill="#5fe6ff" opacity="0.25"/><polygon points="120.4,122.4 122.0,126.8 126.4,128.4 122.0,130.0 120.4,134.4 118.8,130.0 114.4,128.4 118.8,126.8" fill="#ff2f9a" opacity="1"/><rect x="110.8" y="127.9" width="19.2" height="1.1" fill="#ff2f9a" opacity="0.50"/><rect x="119.9" y="118.8" width="1.1" height="19.2" fill="#ff2f9a" opacity="0.50"/><polygon points="51.2,69.3 52.1,71.8 54.6,72.7 52.1,73.6 51.2,76.1 50.3,73.6 47.8,72.7 50.3,71.8" fill="#c89bff" opacity="1"/><rect x="45.8" y="72.2" width="10.8" height="1.1" fill="#c89bff" opacity="0.50"/><rect x="50.7" y="67.3" width="1.1" height="10.8" fill="#c89bff" opacity="0.50"/><polygon points="28.2,15.7 28.8,17.3 30.3,17.8 28.8,18.4 28.2,19.9 27.6,18.4 26.1,17.8 27.6,17.3" fill="#9bff8f" opacity="0.5"/><rect x="24.8" y="17.3" width="6.8" height="1.1" fill="#9bff8f" opacity="0.25"/><rect x="27.6" y="14.4" width="1.1" height="6.8" fill="#9bff8f" opacity="0.25"/><polygon points="14.8,151.5 15.4,153.0 16.9,153.6 15.4,154.2 14.8,155.7 14.3,154.2 12.7,153.6 14.3,153.0" fill="#ffffff" opacity="0.5"/><rect x="11.4" y="153.0" width="6.8" height="1.1" fill="#ffffff" opacity="0.25"/><rect x="14.3" y="150.2" width="1.1" height="6.8" fill="#ffffff" opacity="0.25"/><polygon points="95.6,129.7 96.5,132.2 99.0,133.1 96.5,134.0 95.6,136.5 94.7,134.0 92.2,133.1 94.7,132.2" fill="#9bff8f" opacity="1"/><rect x="90.2" y="132.5" width="10.8" height="1.1" fill="#9bff8f" opacity="0.50"/><rect x="95.0" y="127.7" width="1.1" height="10.8" fill="#9bff8f" opacity="0.50"/><polygon points="99.3,122.4 99.8,124.0 101.4,124.5 99.8,125.0 99.3,126.6 98.8,125.0 97.2,124.5 98.8,124.0" fill="#ffffff" opacity="0.5"/><rect x="95.9" y="124.0" width="6.8" height="1.1" fill="#ffffff" opacity="0.25"/><rect x="98.8" y="121.1" width="1.1" height="6.8" fill="#ffffff" opacity="0.25"/><polygon points="69.7,99.8 70.3,101.4 71.8,101.9 70.3,102.5 69.7,104.0 69.2,102.5 67.6,101.9 69.2,101.4" fill="#ffe1f4" opacity="0.5"/><rect x="66.3" y="101.4" width="6.8" height="1.1" fill="#ffe1f4" opacity="0.25"/><rect x="69.2" y="98.5" width="1.1" height="6.8" fill="#ffe1f4" opacity="0.25"/><polygon points="147.4,18.9 148.0,20.4 149.5,21 148.0,21.6 147.4,23.1 146.8,21.6 145.3,21 146.8,20.4" fill="#ffe23b" opacity="0.5"/><rect x="144.0" y="20.4" width="6.8" height="1.1" fill="#ffe23b" opacity="0.25"/><rect x="146.8" y="17.6" width="1.1" height="6.8" fill="#ffe23b" opacity="0.25"/><polygon points="143.1,65.5 143.9,67.9 146.3,68.7 143.9,69.5 143.1,71.9 142.3,69.5 139.9,68.7 142.3,67.9" fill="#5fe6ff" opacity="0.5"/><rect x="138.0" y="68.2" width="10.2" height="1.1" fill="#5fe6ff" opacity="0.25"/><rect x="142.5" y="63.6" width="1.1" height="10.2" fill="#5fe6ff" opacity="0.25"/><polygon points="26.9,151.3 27.4,152.8 29.0,153.4 27.4,154.0 26.9,155.5 26.3,154.0 24.8,153.4 26.3,152.8" fill="#ffffff" opacity="0.5"/><rect x="23.5" y="152.8" width="6.8" height="1.1" fill="#ffffff" opacity="0.25"/><rect x="26.3" y="150.0" width="1.1" height="6.8" fill="#ffffff" opacity="0.25"/><polygon points="37.3,11.8 38.2,14.3 40.7,15.2 38.2,16.1 37.3,18.6 36.4,16.1 33.9,15.2 36.4,14.3" fill="#ffffff" opacity="1"/><rect x="31.9" y="14.6" width="10.8" height="1.1" fill="#ffffff" opacity="0.50"/><rect x="36.8" y="9.8" width="1.1" height="10.8" fill="#ffffff" opacity="0.50"/><polygon points="135.1,25.5 135.7,27.1 137.2,27.6 135.7,28.2 135.1,29.7 134.5,28.2 133.0,27.6 134.5,27.1" fill="#ff2f9a" opacity="0.5"/><rect x="131.7" y="27.1" width="6.8" height="1.1" fill="#ff2f9a" opacity="0.25"/><rect x="134.5" y="24.2" width="1.1" height="6.8" fill="#ff2f9a" opacity="0.25"/><polygon points="90.8,7.9 91.6,10.3 94.0,11.1 91.6,11.9 90.8,14.3 90.0,11.9 87.6,11.1 90.0,10.3" fill="#ffe23b" opacity="0.5"/><rect x="85.7" y="10.5" width="10.2" height="1.1" fill="#ffe23b" opacity="0.25"/><rect x="90.3" y="6.0" width="1.1" height="10.2" fill="#ffe23b" opacity="0.25"/><polygon points="23.1,38.8 23.9,41.2 26.3,42 23.9,42.8 23.1,45.2 22.3,42.8 19.9,42 22.3,41.2" fill="#ffffff" opacity="0.5"/><rect x="18.0" y="41.5" width="10.2" height="1.1" fill="#ffffff" opacity="0.25"/><rect x="22.6" y="36.9" width="1.1" height="10.2" fill="#ffffff" opacity="0.25"/><polygon points="61.2,69.9 62.8,74.3 67.2,75.9 62.8,77.5 61.2,81.9 59.6,77.5 55.2,75.9 59.6,74.3" fill="#c89bff" opacity="1"/><rect x="51.6" y="75.4" width="19.2" height="1.1" fill="#c89bff" opacity="0.50"/><rect x="60.7" y="66.3" width="1.1" height="19.2" fill="#c89bff" opacity="0.50"/><polygon points="100.9,93.6 101.8,96.1 104.3,97 101.8,97.9 100.9,100.4 100.0,97.9 97.5,97 100.0,96.1" fill="#5fe6ff" opacity="1"/><rect x="95.5" y="96.5" width="10.8" height="1.1" fill="#5fe6ff" opacity="0.50"/><rect x="100.4" y="91.6" width="1.1" height="10.8" fill="#5fe6ff" opacity="0.50"/><polygon points="77.1,16.0 78.7,20.4 83.1,22 78.7,23.6 77.1,28.0 75.5,23.6 71.1,22 75.5,20.4" fill="#ffe23b" opacity="1"/><rect x="67.5" y="21.4" width="19.2" height="1.1" fill="#ffe23b" opacity="0.50"/><rect x="76.5" y="12.4" width="1.1" height="19.2" fill="#ffe23b" opacity="0.50"/><polygon points="46.3,90.0 47.1,92.4 49.5,93.2 47.1,94.0 46.3,96.4 45.5,94.0 43.1,93.2 45.5,92.4" fill="#ffe23b" opacity="0.5"/><rect x="41.2" y="92.7" width="10.2" height="1.1" fill="#ffe23b" opacity="0.25"/><rect x="45.8" y="88.1" width="1.1" height="10.2" fill="#ffe23b" opacity="0.25"/><polygon points="20.9,72.5 21.8,75.0 24.3,75.9 21.8,76.8 20.9,79.3 20.0,76.8 17.5,75.9 20.0,75.0" fill="#ffe23b" opacity="1"/><rect x="15.5" y="75.4" width="10.8" height="1.1" fill="#ffe23b" opacity="0.50"/><rect x="20.3" y="70.5" width="1.1" height="10.8" fill="#ffe23b" opacity="0.50"/><polygon points="38.1,124.6 38.6,126.2 40.2,126.7 38.6,127.3 38.1,128.8 37.6,127.3 36.0,126.7 37.6,126.2" fill="#ff2f9a" opacity="0.5"/><rect x="34.7" y="126.2" width="6.8" height="1.1" fill="#ff2f9a" opacity="0.25"/><rect x="37.6" y="123.3" width="1.1" height="6.8" fill="#ff2f9a" opacity="0.25"/><polygon points="32.3,64.9 32.8,66.5 34.4,67 32.8,67.5 32.3,69.1 31.7,67.5 30.2,67 31.7,66.5" fill="#ffffff" opacity="0.5"/><rect x="28.9" y="66.5" width="6.8" height="1.1" fill="#ffffff" opacity="0.25"/><rect x="31.7" y="63.6" width="1.1" height="6.8" fill="#ffffff" opacity="0.25"/><polygon points="115.5,99.4 116.0,101.0 117.6,101.5 116.0,102.0 115.5,103.6 115.0,102.0 113.4,101.5 115.0,101.0" fill="#ffe1f4" opacity="0.5"/><rect x="112.1" y="101.0" width="6.8" height="1.1" fill="#ffe1f4" opacity="0.25"/><rect x="115.0" y="98.1" width="1.1" height="6.8" fill="#ffe1f4" opacity="0.25"/><polygon points="63,44.8 63.5,46.4 65.1,46.9 63.5,47.4 63,49.0 62.5,47.4 60.9,46.9 62.5,46.4" fill="#ffffff" opacity="0.5"/><rect x="59.6" y="46.4" width="6.8" height="1.1" fill="#ffffff" opacity="0.25"/><rect x="62.5" y="43.5" width="1.1" height="6.8" fill="#ffffff" opacity="0.25"/><polygon points="81.5,88.9 82.4,91.4 84.9,92.3 82.4,93.2 81.5,95.7 80.6,93.2 78.1,92.3 80.6,91.4" fill="#ffffff" opacity="1"/><rect x="76.1" y="91.8" width="10.8" height="1.1" fill="#ffffff" opacity="0.50"/><rect x="81.0" y="86.9" width="1.1" height="10.8" fill="#ffffff" opacity="0.50"/><polygon points="97.3,45.9 98.1,48.3 100.5,49.1 98.1,49.9 97.3,52.3 96.5,49.9 94.1,49.1 96.5,48.3" fill="#c89bff" opacity="0.5"/><rect x="92.2" y="48.6" width="10.2" height="1.1" fill="#c89bff" opacity="0.25"/><rect x="96.8" y="44.0" width="1.1" height="10.2" fill="#c89bff" opacity="0.25"/><polygon points="100.3,106.4 101.1,108.8 103.5,109.6 101.1,110.4 100.3,112.8 99.5,110.4 97.1,109.6 99.5,108.8" fill="#ff79c6" opacity="0.5"/><rect x="95.2" y="109.0" width="10.2" height="1.1" fill="#ff79c6" opacity="0.25"/><rect x="99.8" y="104.5" width="1.1" height="10.2" fill="#ff79c6" opacity="0.25"/><polygon points="141.9,90.2 142.8,92.7 145.3,93.6 142.8,94.5 141.9,97.0 141.0,94.5 138.5,93.6 141.0,92.7" fill="#ffffff" opacity="1"/><rect x="136.5" y="93.0" width="10.8" height="1.1" fill="#ffffff" opacity="0.50"/><rect x="141.3" y="88.2" width="1.1" height="10.8" fill="#ffffff" opacity="0.50"/><polygon points="61.1,59.2 61.6,60.8 63.2,61.3 61.6,61.8 61.1,63.4 60.6,61.8 59.0,61.3 60.6,60.8" fill="#ff2f9a" opacity="0.5"/><rect x="57.7" y="60.8" width="6.8" height="1.1" fill="#ff2f9a" opacity="0.25"/><rect x="60.6" y="57.9" width="1.1" height="6.8" fill="#ff2f9a" opacity="0.25"/></svg>