<svg xmlns="http://www.w3.org/2000/svg" viewBox="0 0 1600 900" shape-rendering="crispEdges">
  <rect width="1600" height="900" fill="#8fd7ff"/>
  <rect y="110" width="1600" height="100" fill="#afe5ff"/>
  <rect y="210" width="1600" height="110" fill="#cbefff"/>
  <rect y="320" width="1600" height="120" fill="#ffe0f1"/>
  <rect y="440" width="1600" height="92" fill="#ffd0eb"/>
  <rect y="532" width="1600" height="126" fill="#d7ff9b"/>
  <rect y="658" width="1600" height="242" fill="#89d85d"/>

  <g fill="#ffffff">
    <rect x="62" y="34" width="10" height="30"/>
    <rect x="52" y="44" width="30" height="10"/>
    <rect x="260" y="92" width="8" height="24"/>
    <rect x="252" y="100" width="24" height="8"/>
    <rect x="1334" y="56" width="10" height="30"/>
    <rect x="1324" y="66" width="30" height="10"/>
    <rect x="1512" y="112" width="8" height="24"/>
    <rect x="1504" y="120" width="24" height="8"/>
    <rect x="1220" y="248" width="8" height="24"/>
    <rect x="1212" y="256" width="24" height="8"/>
  </g>

  <g fill="#ff78c6">
    <rect x="86" y="102" width="18" height="18"/>
    <rect x="104" y="84" width="18" height="18"/>
    <rect x="122" y="102" width="18" height="18"/>
    <rect x="104" y="120" width="18" height="18"/>

    <rect x="1432" y="160" width="18" height="18"/>
    <rect x="1450" y="142" width="18" height="18"/>
    <rect x="1468" y="160" width="18" height="18"/>
    <rect x="1450" y="178" width="18" height="18"/>
  </g>

  <g fill="#ffe9f6">
    <rect x="104" y="102" width="18" height="18"/>
    <rect x="1450" y="160" width="18" height="18"/>
  </g>

  <g fill="#ffffff">
    <rect x="170" y="140" width="22" height="22"/>
    <rect x="192" y="118" width="44" height="66"/>
    <rect x="236" y="140" width="22" height="22"/>
    <rect x="204" y="106" width="18" height="18"/>

    <rect x="1202" y="120" width="22" height="22"/>
    <rect x="1224" y="98" width="44" height="66"/>
    <rect x="1268" y="120" width="22" height="22"/>
    <rect x="1236" y="86" width="18" height="18"/>

    <rect x="1340" y="196" width="20" height="20"/>
    <rect x="1360" y="174" width="40" height="60"/>
    <rect x="1400" y="196" width="20" height="20"/>
  </g>

  <g fill="none" stroke-width="20">
    <path d="M 254 438 C 420 206 714 150 972 308" stroke="#ff63b4"/>
    <path d="M 272 448 C 434 224 712 172 956 326" stroke="#ffb04c"/>
    <path d="M 288 458 C 448 240 706 194 942 340" stroke="#fff277"/>
    <path d="M 304 468 C 462 254 700 212 926 356" stroke="#96ee7e"/>
    <path d="M 320 478 C 476 270 694 230 912 372" stroke="#7ae4ff"/>
  </g>

  <g fill="#ffffff">
    <rect x="60" y="234" width="14" height="220"/>
    <rect x="1526" y="204" width="14" height="246"/>
  </g>

  <g fill="#ffd6ee">
    <rect x="52" y="248" width="30" height="16"/>
    <rect x="1518" y="222" width="30" height="16"/>
    <rect x="52" y="300" width="30" height="16"/>
    <rect x="1518" y="276" width="30" height="16"/>
    <rect x="52" y="352" width="30" height="16"/>
    <rect x="1518" y="330" width="30" height="16"/>
  </g>

  <g fill="#ffffff">
    <rect x="72" y="264" width="10" height="10"/>
    <rect x="1538" y="238" width="10" height="10"/>
    <rect x="72" y="316" width="10" height="10"/>
    <rect x="1538" y="292" width="10" height="10"/>
    <rect x="72" y="368" width="10" height="10"/>
    <rect x="1538" y="346" width="10" height="10"/>
  </g>

  <polygon points="0,650 150,562 336,618 514,514 730,604 904,504 1102,592 1278,506 1444,562 1600,500 1600,900 0,900" fill="#bfff69"/>
  <polygon points="0,720 160,626 340,684 528,590 724,678 916,584 1108,654 1286,578 1450,632 1600,592 1600,900 0,900" fill="#89d85d"/>

  <g fill="#ffffff">
    <rect x="396" y="530" width="20" height="138"/>
    <rect x="486" y="530" width="20" height="138"/>
    <rect x="576" y="530" width="20" height="138"/>
    <rect x="666" y="530" width="20" height="138"/>
    <rect x="756" y="530" width="20" height="138"/>
    <rect x="846" y="530" width="20" height="138"/>
    <rect x="936" y="530" width="20" height="138"/>
    <rect x="1026" y="530" width="20" height="138"/>
    <rect x="1116" y="530" width="20" height="138"/>
    <rect x="1206" y="530" width="20" height="138"/>
    <rect x="382" y="530" width="854" height="18"/>
    <rect x="382" y="650" width="854" height="18"/>
  </g>

  <g fill="#ff71c0">
    <rect x="242" y="566" width="24" height="24"/>
    <rect x="266" y="542" width="24" height="24"/>
    <rect x="290" y="566" width="24" height="24"/>
    <rect x="266" y="590" width="24" height="24"/>

    <rect x="1308" y="540" width="24" height="24"/>
    <rect x="1332" y="516" width="24" height="24"/>
    <rect x="1356" y="540" width="24" height="24"/>
    <rect x="1332" y="564" width="24" height="24"/>
  </g>

  <g fill="#ffeaf7">
    <rect x="266" y="566" width="24" height="24"/>
    <rect x="1332" y="540" width="24" height="24"/>
  </g>

  <g fill="#51301f">
    <rect x="150" y="486" width="40" height="208"/>
    <rect x="1404" y="470" width="40" height="224"/>
    <rect x="196" y="528" width="34" height="104"/>
    <rect x="1364" y="516" width="34" height="108"/>
  </g>

  <g fill="#ffffff">
    <rect x="80" y="372" width="28" height="28"/>
    <rect x="114" y="346" width="28" height="28"/>
    <rect x="148" y="326" width="28" height="28"/>
    <rect x="182" y="314" width="28" height="28"/>
    <rect x="216" y="312" width="28" height="28"/>
    <rect x="250" y="324" width="28" height="28"/>
    <rect x="284" y="346" width="28" height="28"/>
    <rect x="318" y="374" width="28" height="28"/>
    <rect x="96" y="414" width="28" height="28"/>
    <rect x="130" y="392" width="28" height="28"/>
    <rect x="164" y="370" width="28" height="28"/>
    <rect x="198" y="360" width="28" height="28"/>
    <rect x="232" y="362" width="28" height="28"/>
    <rect x="266" y="378" width="28" height="28"/>
    <rect x="300" y="404" width="28" height="28"/>

    <rect x="1266" y="350" width="28" height="28"/>
    <rect x="1300" y="326" width="28" height="28"/>
    <rect x="1334" y="306" width="28" height="28"/>
    <rect x="1368" y="296" width="28" height="28"/>
    <rect x="1402" y="296" width="28" height="28"/>
    <rect x="1436" y="310" width="28" height="28"/>
    <rect x="1470" y="334" width="28" height="28"/>
    <rect x="1504" y="362" width="28" height="28"/>
    <rect x="1282" y="390" width="28" height="28"/>
    <rect x="1316" y="368" width="28" height="28"/>
    <rect x="1350" y="352" width="28" height="28"/>
    <rect x="1384" y="344" width="28" height="28"/>
    <rect x="1418" y="346" width="28" height="28"/>
    <rect x="1452" y="362" width="28" height="28"/>
    <rect x="1486" y="386" width="28" height="28"/>
  </g>

  <g fill="#ffd1e8">
    <rect x="108" y="398" width="16" height="16"/>
    <rect x="172" y="290" width="16" height="16"/>
    <rect x="246" y="344" width="16" height="16"/>
    <rect x="286" y="426" width="16" height="16"/>
    <rect x="1322" y="300" width="16" height="16"/>
    <rect x="1406" y="390" width="16" height="16"/>
    <rect x="1492" y="352" width="16" height="16"/>
  </g>

  <g fill="#ffffff">
    <rect x="72" y="744" width="10" height="30"/>
    <rect x="62" y="754" width="30" height="10"/>
    <rect x="236" y="704" width="8" height="24"/>
    <rect x="228" y="712" width="24" height="8"/>
    <rect x="456" y="772" width="10" height="30"/>
    <rect x="446" y="782" width="30" height="10"/>
    <rect x="872" y="736" width="10" height="30"/>
    <rect x="862" y="746" width="30" height="10"/>
    <rect x="1048" y="772" width="10" height="30"/>
    <rect x="1038" y="782" width="30" height="10"/>
    <rect x="1466" y="720" width="10" height="30"/>
    <rect x="1456" y="730" width="30" height="10"/>
  </g>

  <g fill="#ff74bc">
    <rect x="148" y="776" width="16" height="16"/>
    <rect x="164" y="760" width="16" height="16"/>
    <rect x="180" y="776" width="16" height="16"/>
    <rect x="166" y="792" width="28" height="16"/>
    <rect x="1268" y="728" width="16" height="16"/>
    <rect x="1284" y="712" width="16" height="16"/>
    <rect x="1300" y="728" width="16" height="16"/>
    <rect x="1286" y="744" width="28" height="16"/>
  </g>

  <g fill="#ffb14c">
    <rect x="296" y="814" width="18" height="18"/>
    <rect x="394" y="782" width="18" height="18"/>
    <rect x="1014" y="814" width="18" height="18"/>
    <rect x="1094" y="786" width="18" height="18"/>
  </g>

  <g fill="#ff79c8">
    <rect x="302" y="820" width="6" height="24"/>
    <rect x="293" y="829" width="24" height="6"/>
    <rect x="400" y="788" width="6" height="24"/>
    <rect x="391" y="797" width="24" height="6"/>
    <rect x="1020" y="820" width="6" height="24"/>
    <rect x="1011" y="829" width="24" height="6"/>
    <rect x="1100" y="792" width="6" height="24"/>
    <rect x="1091" y="801" width="24" height="6"/>
  </g>

  <g fill="#fff5fb">
    <rect y="650" width="1600" height="14"/>
    <rect y="664" width="1600" height="10" fill="#ffd6ee"/>
    <rect y="674" width="1600" height="10"/>
  </g>
</svg>
