<svg xmlns="http://www.w3.org/2000/svg" viewBox="0 0 320 58" shape-rendering="crispEdges">
  <rect width="320" height="58" fill="none"/>
  <rect y="20" width="320" height="12" fill="#fff5fb"/>
  <rect y="32" width="320" height="8" fill="#ffd1e8"/>
  <rect y="40" width="320" height="8" fill="#ffffff"/>

  <g fill="#fff5fb">
    <rect x="0" y="32" width="40" height="10"/>
    <rect x="10" y="42" width="20" height="8"/>
    <rect x="40" y="32" width="40" height="10"/>
    <rect x="50" y="42" width="20" height="8"/>
    <rect x="80" y="32" width="40" height="10"/>
    <rect x="90" y="42" width="20" height="8"/>
    <rect x="120" y="32" width="40" height="10"/>
    <rect x="130" y="42" width="20" height="8"/>
    <rect x="160" y="32" width="40" height="10"/>
    <rect x="170" y="42" width="20" height="8"/>
    <rect x="200" y="32" width="40" height="10"/>
    <rect x="210" y="42" width="20" height="8"/>
    <rect x="240" y="32" width="40" height="10"/>
    <rect x="250" y="42" width="20" height="8"/>
    <rect x="280" y="32" width="40" height="10"/>
    <rect x="290" y="42" width="20" height="8"/>
  </g>

  <g fill="#ff6fbd">
    <rect x="24" y="8" width="10" height="10"/>
    <rect x="34" y="18" width="10" height="10"/>
    <rect x="44" y="8" width="10" height="10"/>
    <rect x="34" y="28" width="10" height="10"/>

    <rect x="144" y="8" width="10" height="10"/>
    <rect x="154" y="18" width="10" height="10"/>
    <rect x="164" y="8" width="10" height="10"/>
    <rect x="154" y="28" width="10" height="10"/>

    <rect x="264" y="8" width="10" height="10"/>
    <rect x="274" y="18" width="10" height="10"/>
    <rect x="284" y="8" width="10" height="10"/>
    <rect x="274" y="28" width="10" height="10"/>
  </g>

  <g fill="#ffffff">
    <rect x="34" y="18" width="10" height="10"/>
    <rect x="154" y="18" width="10" height="10"/>
    <rect x="274" y="18" width="10" height="10"/>
  </g>

  <g fill="#7ce6ff">
    <rect x="92" y="12" width="6" height="18"/>
    <rect x="86" y="18" width="18" height="6"/>
    <rect x="212" y="12" width="6" height="18"/>
    <rect x="206" y="18" width="18" height="6"/>
  </g>
</svg>
