<svg xmlns="http://www.w3.org/2000/svg" viewBox="0 0 240 240" shape-rendering="crispEdges">
  <rect width="240" height="240" fill="none"/>

  <g fill="#ffffff">
    <rect x="26" y="18" width="6" height="18"/>
    <rect x="20" y="24" width="18" height="6"/>
    <rect x="184" y="42" width="6" height="18"/>
    <rect x="178" y="48" width="18" height="6"/>
    <rect x="70" y="184" width="6" height="18"/>
    <rect x="64" y="190" width="18" height="6"/>
    <rect x="212" y="180" width="6" height="18"/>
    <rect x="206" y="186" width="18" height="6"/>
  </g>

  <g fill="#ff6fbd">
    <rect x="46" y="54" width="12" height="12"/>
    <rect x="58" y="42" width="12" height="12"/>
    <rect x="70" y="54" width="12" height="12"/>
    <rect x="58" y="66" width="12" height="12"/>

    <rect x="170" y="134" width="12" height="12"/>
    <rect x="182" y="122" width="12" height="12"/>
    <rect x="194" y="134" width="12" height="12"/>
    <rect x="182" y="146" width="12" height="12"/>
  </g>

  <g fill="#ffe9f6">
    <rect x="58" y="54" width="12" height="12"/>
    <rect x="182" y="134" width="12" height="12"/>
  </g>

  <g fill="#76e5ff">
    <rect x="116" y="34" width="12" height="12"/>
    <rect x="104" y="46" width="12" height="12"/>
    <rect x="116" y="58" width="12" height="12"/>
    <rect x="128" y="46" width="12" height="12"/>
  </g>

  <g fill="#fff39d">
    <rect x="122" y="142" width="12" height="12"/>
    <rect x="110" y="154" width="12" height="12"/>
    <rect x="122" y="166" width="12" height="12"/>
    <rect x="134" y="154" width="12" height="12"/>
  </g>

  <g fill="#ffb3df">
    <rect x="12" y="118" width="18" height="12"/>
    <rect x="30" y="106" width="12" height="12"/>
    <rect x="30" y="130" width="12" height="12"/>
    <rect x="42" y="118" width="12" height="12"/>
    <rect x="54" y="106" width="12" height="12"/>
    <rect x="54" y="130" width="12" height="12"/>
    <rect x="66" y="118" width="18" height="12"/>
  </g>

  <g fill="#ffffff">
    <rect x="42" y="118" width="12" height="12"/>
  </g>

  <g fill="#c7f5ff">
    <rect x="154" y="206" width="14" height="14"/>
    <rect x="168" y="192" width="14" height="14"/>
    <rect x="182" y="206" width="14" height="14"/>
    <rect x="168" y="220" width="14" height="14"/>
  </g>

  <g fill="#ffffff">
    <rect x="168" y="206" width="14" height="14"/>
  </g>
</svg>
